<svg xmlns="http://www.w3.org/2000/svg" xmlns:xlink="http://www.w3.org/1999/xlink" viewBox="0 0 280.04 255.22"><defs><style>.cls-1{fill:url(#linear-gradient);}.cls-2{fill:url(#linear-gradient-2);}.cls-3{fill:#050606;opacity:0.35;}.cls-4{fill:url(#linear-gradient-3);}.cls-5{fill:url(#linear-gradient-4);}</style><linearGradient id="linear-gradient" x1="61.95" y1="96.97" x2="147.31" y2="96.97" gradientUnits="userSpaceOnUse"><stop offset="0" stop-color="#58595b"/><stop offset="1" stop-color="#3f3b3c"/></linearGradient><linearGradient id="linear-gradient-2" x1="133.48" y1="175.38" x2="224.63" y2="159.31" gradientUnits="userSpaceOnUse"><stop offset="0" stop-color="#ed1c24"/><stop offset="1" stop-color="#be1e2d"/></linearGradient><linearGradient id="linear-gradient-3" x1="140.02" y1="255.22" x2="140.02" gradientUnits="userSpaceOnUse"><stop offset="0" stop-color="#b21f2b"/><stop offset="1" stop-color="#e31e26"/></linearGradient><linearGradient id="linear-gradient-4" x1="169.08" y1="182.51" x2="169.08" y2="28" xlink:href="#linear-gradient-2"/></defs><g id="Layer_2" data-name="Layer 2"><g id="Layer_1-2" data-name="Layer 1"><polygon class="cls-1" points="147.31 105.21 112.41 62.17 61.95 62.17 118.37 131.76 147.31 105.21"/><polygon class="cls-2" points="156.79 116.9 127.85 143.45 183.46 212.03 233.93 212.03 156.79 116.9"/><polygon class="cls-3" points="150.07 170.84 139.23 157.48 175.13 116.99 150.07 170.84"/><polygon class="cls-4" points="63.12 255.22 280.04 0 0.36 254.66 0 255.22 63.12 255.22"/><polygon class="cls-5" points="252.81 28 121.16 181.34 215.82 66.17 85.35 182.51 252.81 28"/></g></g></svg>